<svg xmlns="http://www.w3.org/2000/svg" width="370" height="153"><style>.shp0{fill:#fff}.shp1{fill:#636466}</style><path id="Layer" class="shp0" d="M119.86 11.43c6.84 4.57 1.92 17.31-8.68 17.32-12.45 0-14.64-13.73-7.18-18.48l1.34 1.79c-3.45 2.22-4.17 7.28-1.71 10.67.13-.16.25-.32.38-.48.12-.16.24-.33.35-.49l.33-.51c.11-.17.21-.35.31-.52l9.63-16.56c1.6-2.8 3.93-4.17 5.88-4.17 7.08 0 6.49 9-.65 11.43zm-5.14.54l-1-.1-6 10.37c-.13.22-.27.44-.4.66-.14.22-.28.43-.43.64-.15.21-.3.42-.46.62-.16.2-.32.41-.48.6a9.77 9.77 0 0 0 2.48.95c.43.1.87.18 1.31.23.44.05.89.06 1.33.05 8.62 0 11.93-12.28 3.65-14.03zm7.19-5.61c1.78-3.35-1.54-5.98-4.14-1.5l-2.87 4.93c3.62-.07 5.64-.86 7.01-3.43z"/><path id="Layer" class="shp0" d="M259.21 19c.15.04.3.1.44.17s.27.16.39.26.23.21.33.33c.1.12.18.25.26.39-2.91 3.39-6.29 6.47-11.46 6.57h-.21c-.44.02-.87-.04-1.29-.17a4.07 4.07 0 0 1-1.16-.58c-.35-.26-.66-.58-.9-.94-.25-.36-.43-.76-.54-1.18l2-1c.1.26.27.49.5.65.23.16.5.25.78.25s.55-.09.78-.25c.23-.16.4-.39.5-.65l5.37-9.31c.93-1.61-1.54-3.6-5.54 1.81l-10.64 18.51h-3.59l6.48-11.24c-.3.14-.6.27-.91.38-.31.11-.63.21-.95.28-.32.08-.64.14-.97.19-.33.05-.65.08-.98.09h-.79c-3.86 4.87-10.15 3.99-10.15-.55-2.2 2.11-4.48 3.67-6.55 3.67-2.87 0-3.94-2.43-2.43-5.06l4.62-8c1.54-2.65-.88-3.53-6.36 3.35l-5.4 9.41h-3.59l1.22-2.12a12.895 12.895 0 0 1-2.59 1.51c-.46.2-.93.37-1.41.51-.48.14-.97.26-1.46.34h-.1l-.25.03c-.08.01-.17.01-.25.02-.08.01-.17.01-.25.01-.08 0-.17.01-.25.01-.44.02-.87-.04-1.29-.17a4.07 4.07 0 0 1-1.16-.58c-.35-.26-.66-.58-.9-.94-.25-.36-.43-.76-.54-1.18l2.17-1.16c.06.18.15.34.26.49.11.15.24.29.39.4.15.11.31.21.48.28.17.07.36.11.54.13 3.35 0 2.6-6.63 4-10.33-1.26 1.68-3.06 4.17-5.06 6.5-2.94 3.42-6.4 6.57-9.27 6.57-2.87 0-3.94-2.42-2.43-5.06l3.76-6.53c.09-.16.15-.33.19-.5.04-.18.04-.35.03-.53-.02-.18-.06-.35-.14-.52a1.65 1.65 0 0 0-.29-.45l-.48-.58c-2.88 3.87-4.17 5.63-5.88 7.63-3 3.42-7 6.57-11 6.57-3.14 0-5.01-1.95-4.82-4.52-.36.21-.73.39-1.11.56-.38.16-.77.31-1.17.42-.4.12-.8.21-1.21.28-.41.07-.82.12-1.23.14-.07 0-.13.01-.2.01h-.4c-.07 0-.13-.01-.2-.01-.34.48-.74.92-1.18 1.32-.44.39-.93.74-1.44 1.02-.52.28-1.07.51-1.63.67-.57.16-1.15.26-1.74.29-2.3 0-4.11-1.37-4.11-3.8-2.2 2.1-4.48 3.65-6.54 3.65-2.87 0-3.93-2.42-2.43-5.06l3.76-6.53c.09-.16.15-.33.19-.5.04-.18.04-.35.03-.53-.02-.18-.06-.35-.14-.52a1.65 1.65 0 0 0-.29-.45l-.48-.58c-2.88 3.87-4.17 5.63-5.88 7.63-2.94 3.42-6.33 6.57-9.27 6.57-1.81 0-2.91-.96-3.08-2.33-1.71 1.41-3.49 2.33-4.93 2.33-2.87 0-3.94-2.42-2.43-5.06l5-8.62c1.51-2.6 4.17-4.11 6.09-4.11.47-.01.94.07 1.38.24.44.17.84.42 1.19.73.35.32.63.7.83 1.12.2.42.32.88.36 1.35h2l-5.75 10.06c-.82 1.45-.38 2 .41 2 1.58 0 4.07-2.34 6.64-5.34l.24-.27c2.3-2.77 4.43-5.78 6-8l-.31-.41c-1.27-1.64-1.08-3.66.92-5.47l1.85 2-.11.09c-.14.12-.26.27-.34.44-.08.17-.13.35-.14.54-.01.19.02.37.08.55.06.18.16.34.29.47l2 2.39c1.16 1.4 1.74 2.66.51 4.82l-3.56 6.23c-.82 1.45-.38 2 .41 2 1.58 0 4.07-2.34 6.64-5.34l.19-.21 9.97-17.22h3.63l-4.52 7.83c.17-.12.35-.23.53-.33.18-.1.38-.18.57-.24.2-.07.4-.12.6-.16.21-.04.41-.06.62-.06h.41c.39.02.78.13 1.13.3.35.17.67.41.93.71s.46.64.59 1.01c.13.37.18.77.16 1.16a8.97 8.97 0 0 1-.41 2.13c-.11.34-.25.68-.4 1.01-.16.33-.33.65-.53.95l-3.35 5.78c.51-.03 1.02-.1 1.52-.23s.98-.31 1.44-.53c.46-.23.9-.5 1.3-.81.41-.31.78-.67 1.11-1.06l.21-.24 3.47-5.97c.31-.61.71-1.18 1.17-1.69.47-.51 1-.94 1.59-1.31.59-.36 1.22-.64 1.88-.83.66-.19 1.35-.29 2.03-.29 2.91 0 4.76 2.47 2.84 5.75l-.51.89c-2.67 4.61-6.98 5.1-9.27 4.1l-.34.62c-1.64 2.87-.34 4.24 1.85 4.24 2.5 0 5.78-2.34 8.35-5.34l.24-.27c2.31-2.77 4.43-5.78 6-8l-.3-.41c-1.27-1.64-1.08-3.66.92-5.47l1.85 2-.11.09c-.14.12-.25.27-.34.44-.08.17-.13.35-.14.54-.01.19.02.37.09.55.07.18.17.34.29.47l2 2.39c1.16 1.4 1.74 2.66.51 4.82l-3.56 6.23c-.82 1.45-.38 2 .41 2 1.58 0 4.07-2.34 6.64-5.34l.24-.27c3.21-3.76 6.43-8.43 7.9-10.43l2.67 1.44c-2.19 4.55-1.95 9.75-3.08 13.14a24.544 24.544 0 0 0 2.25-1.79c.36-.32.7-.66 1.03-1 .33-.35.66-.7.97-1.07l.2-.23 9.87-17.28h3.56l-5.68 9.89c1.82-1.85 3.46-2.7 5-2.7 1.99 0 3.46 1.95 1.92 4.65l-5.13 9c-.82 1.45-.38 2 .41 2 1.58 0 4.07-2.34 6.64-5.34l.19-.22 1.46-2.48 1.75-3c2.05-3.56 4.17-4.65 6.91-4.65 3.35 0 5.34 3.52 3.18 7.25l-3.35 5.78c.51-.03 1.02-.11 1.51-.24.5-.13.98-.31 1.44-.53a7.868 7.868 0 0 0 2.42-1.86l.24-.27 5.56-9.65h3.56l-.72 1.23c3.63-3.25 9-1.36 5.68 4.28l-3.93 6.74c-.47.75-.89 1.75-1.47 2.67a16.92 16.92 0 0 0 3.57-2.1c.55-.42 1.07-.88 1.56-1.36.49-.49.95-1 1.38-1.54zm-83.29-1c1.34.48 3.63.55 5.34-2.36l.51-.89c2.12-3.69-1.51-4.27-3.56-.75zm-40.48-3.3c1.71-3.21-2.08-4.07-4-.75l-5 8.66c-.82 1.45-.38 2 .41 2 1.47 0 3.59-1.61 5.75-5zm23.94 9.73a3.308 3.308 0 0 0 1.57-.52c.24-.15.45-.33.64-.54.19-.21.35-.43.49-.68a5.31 5.31 0 0 1-1.53-1.6c-.19-.32-.35-.65-.48-1.01-.12-.35-.21-.71-.25-1.08l-1.25 2.25a3.623 3.623 0 0 0-.42.89c-.05.16-.09.31-.13.48-.03.16-.06.32-.07.49-.01.19.03.37.1.55.07.17.18.33.31.46.14.13.3.23.48.29.18.06.37.09.55.07zm7.35-9.66a4.674 4.674 0 0 0 .48-1.01c.06-.18.1-.36.14-.55.03-.18.06-.37.06-.56.03-.19.01-.39-.05-.57a1.373 1.373 0 0 0-.74-.84c-.18-.08-.37-.12-.56-.12-2.02 0-4.48 4.14-4.48 6.67-.01.31.01.62.07.92.06.3.16.6.29.88.13.28.3.54.49.78s.42.46.66.64zm72.03-.02c2.16-3.7-1.26-5.37-3.76-1.13l-1.68 2.92-2.7 4.69c-2.12 3.7 1.95 4.24 3.63 1.37v-.07c-.05-.09-.1-.18-.15-.28-.04-.1-.08-.2-.11-.3-.03-.1-.05-.2-.07-.31-.01-.1-.02-.21-.02-.31 0-.28.05-.55.16-.8.1-.26.26-.49.45-.68.19-.2.42-.35.68-.46.25-.11.53-.16.8-.16h.18zM0 73.26l5.71-5.71 5.71 5.72-5.71 5.71zm352.02.02l5.71-5.71 5.71 5.72-5.71 5.71z"/><path id="Layer" class="shp1" d="M61.69 75V62.32c0-.42-.06-.84-.18-1.25-.12-.41-.29-.79-.52-1.15-.23-.36-.5-.68-.81-.97-.31-.28-.67-.52-1.05-.71.08.15.15.31.21.48a4.543 4.543 0 0 1 .27 1.53v12.68a4.427 4.427 0 0 1-.42 1.95c-.14.3-.32.59-.53.85-.21.26-.44.5-.7.71.25.24.48.5.69.78.2.28.38.58.52.9.14.32.25.65.33.98.08.34.12.68.13 1.03v14.1c-.01.6-.13 1.19-.37 1.75-.24.55-.58 1.05-1 1.48-.43.42-.93.76-1.49.99-.55.23-1.15.35-1.75.35H41.51v2.08h15.64c.6-.01 1.19-.13 1.73-.37.55-.23 1.05-.57 1.47-.99.42-.42.76-.92.99-1.47.23-.55.36-1.14.37-1.73v-14.1c-.01-.35-.05-.69-.13-1.03-.08-.34-.19-.67-.34-.98-.14-.32-.32-.62-.53-.9-.2-.28-.44-.54-.69-.77.26-.21.5-.45.71-.71.21-.26.39-.55.54-.85.15-.3.26-.62.33-.95.07-.33.11-.67.11-1zM46.8 73.48h2.08v-8.32h3.27v-2.09H46.8v10.41z"/><path id="Layer" class="shp1" d="M46.8 91.34h2.08v-8.39h3.27v-2.08H46.8zm33.01 0h2.08V65.16h3.27v-2.09h-5.35v28.27z"/><path id="Layer" class="shp1" d="M92.14 58.25c.08.15.15.31.21.48a4.543 4.543 0 0 1 .27 1.53v34c-.01.6-.13 1.19-.37 1.73-.23.55-.57 1.05-.99 1.47-.42.42-.92.76-1.47.99-.55.23-1.14.36-1.73.37H77a4.533 4.533 0 0 1-1.03-.12c-.17-.04-.33-.09-.5-.15-.16-.06-.32-.13-.48-.21.19.38.42.73.71 1.05.28.31.61.59.97.81.36.23.75.4 1.15.52.41.12.83.18 1.25.18h11.08c.6-.01 1.19-.13 1.73-.37.55-.23 1.05-.57 1.47-.99.42-.42.76-.92.99-1.47.23-.55.36-1.14.37-1.73v-34c0-.42-.06-.85-.18-1.25-.12-.41-.29-.8-.52-1.15-.23-.36-.5-.68-.82-.97-.32-.28-.67-.52-1.05-.71zm20.68 15.23h2.08v-8.32h3.28v-2.09h-5.36v10.41zm12.25 9.04c.39-.18.74-.41 1.06-.69.32-.28.6-.6.83-.96.23-.36.4-.75.52-1.15.12-.41.18-.83.18-1.25V62.33c0-.43-.06-.85-.18-1.26-.12-.41-.29-.8-.52-1.16-.23-.36-.5-.69-.82-.97-.32-.28-.67-.52-1.06-.71.08.15.15.31.2.48a4.543 4.543 0 0 1 .27 1.53v16.15c0 .42-.05.85-.17 1.26a4.48 4.48 0 0 1-1.34 2.12c-.32.28-.68.51-1.06.69l3.08 18.35h-5.68l.35 2.08h7.39zm-9.42-1.65h-2.83v17.92h-5.31v2.09h7.39V82.95h1.1zm29.19 10.47h2.09V65.16h3.27v-2.09h-5.36v28.27z"/><path id="Layer" class="shp1" d="M157.18 58.25c.08.15.15.31.21.48a4.543 4.543 0 0 1 .27 1.53v34c-.01.6-.13 1.19-.37 1.73-.23.55-.57 1.05-.99 1.47-.42.42-.92.76-1.47.99-.55.23-1.14.36-1.73.37H142a4.533 4.533 0 0 1-1.03-.12c-.17-.04-.33-.09-.5-.15-.16-.06-.32-.13-.48-.21.19.38.42.73.71 1.05.28.31.61.59.97.81.36.23.75.4 1.15.52.41.12.83.18 1.25.18h11.09c.6-.01 1.19-.13 1.73-.37.55-.23 1.05-.57 1.47-.99.42-.42.76-.92.99-1.47.23-.55.36-1.14.37-1.73v-34c0-.42-.06-.84-.18-1.25-.12-.41-.29-.79-.51-1.15-.22-.36-.5-.68-.81-.97-.31-.28-.66-.52-1.04-.71zm20.67 33.09h2.09V65.16h3.27v-2.09h-5.36v28.27z"/><path id="Layer" class="shp1" d="M190.19 58.25c.08.15.15.31.21.48a4.543 4.543 0 0 1 .27 1.53v34c-.01.6-.13 1.19-.37 1.73-.23.55-.57 1.05-.99 1.47-.42.42-.92.76-1.47.99-.55.23-1.14.36-1.73.37h-13.56v2.08h15.64c.6-.01 1.19-.13 1.73-.37.55-.23 1.05-.57 1.47-.99.42-.42.76-.92.99-1.47.23-.55.36-1.14.37-1.73v-34c0-.42-.06-.84-.18-1.25-.12-.41-.29-.79-.52-1.15-.23-.36-.5-.68-.81-.97-.31-.28-.67-.52-1.05-.71zm21.05-.48v41.02h-5.31v2.09h7.39V57.77h-2.08zm32.88 0v41.02h-5.9l.59 2.09h7.4V57.77zm-12.81 22.18v18.84h-5.3v2.09h7.39V87.19l-2.09-7.24zM263.58 83h6.11v-2.13h-8.19a4.533 4.533 0 0 1-1.03-.12c-.17-.04-.33-.09-.5-.15-.16-.06-.32-.13-.48-.21a4.49 4.49 0 0 0 1.67 1.9c.36.23.75.41 1.16.53.41.12.83.18 1.26.19zm2.83 2.73l-2.09.48v5.13h2.09zm10.25-27.48c.08.15.15.31.21.48a4.543 4.543 0 0 1 .27 1.53v8.75l-5.37 1.24v2.56l7.45-1.73v-8.75c0-.42-.06-.84-.18-1.25-.12-.41-.29-.79-.52-1.15-.23-.36-.5-.68-.81-.97-.31-.28-.67-.52-1.05-.71z"/><path id="Layer" class="shp1" d="M276.66 76.05c.08.15.15.31.21.48a4.543 4.543 0 0 1 .27 1.53v16.2c-.01.6-.13 1.19-.37 1.73-.23.55-.57 1.05-.99 1.47-.42.42-.92.76-1.47.99-.55.23-1.14.36-1.73.37h-11.09a4.533 4.533 0 0 1-1.03-.12c-.17-.04-.33-.09-.5-.15-.16-.06-.32-.13-.48-.21.19.38.42.73.71 1.05.28.31.61.59.97.81.36.23.75.4 1.15.52.41.12.83.18 1.25.18h11.08c.6-.01 1.19-.13 1.73-.37.55-.23 1.05-.57 1.47-.99.42-.42.76-.92.99-1.47.23-.55.36-1.14.37-1.73V80.13c0-.42-.06-.84-.18-1.25-.12-.41-.29-.79-.51-1.15-.22-.36-.5-.68-.81-.97-.31-.28-.66-.52-1.04-.71zm-12.34-12.98v10.41h2.09v-8.32h3.27v-2.09h-5.36zm33.69 17.8h-.68v17.92h-5.3v2.09h7.39V85.35l-1.41-4.48zm15.14-23.1h-2.75l-6.23 19.41 6.9 21.61h-6.01l.58 1.84.06.25h7.45l-6.9-21.62 6.9-21.49zm17.38 0v41.02h-5.3v2.09h7.38V57.77h-2.08z"/><path id="Layer" class="shp0" d="M167.9 123.85c-10.26.91-16.01 6.96-23.36 11.22-.31.19-.62.37-.93.54-.32.17-.63.34-.96.5-.32.16-.65.31-.98.45-.33.14-.66.28-1 .41-.38.17-.76.31-1.15.44-.39.13-.79.23-1.19.31-.4.08-.81.15-1.22.19-.41.04-.82.06-1.23.06a4.24 4.24 0 0 1-2.01-.82c-.29-.22-.56-.48-.79-.76-.23-.29-.42-.6-.57-.94-1.54-3.46.68-7.75 4.54-7.61.26 0 .53.03.78.09.26.06.51.14.75.24.24.11.47.23.69.38.22.15.42.32.6.51.26.24.56.72 1.17.61.49-.55-.03-1.26-.31-1.72-.3-.52-.68-1-1.12-1.41a5.88 5.88 0 0 0-1.49-1.02c-.54-.27-1.12-.45-1.72-.54-.6-.1-1.21-.1-1.81-.02-5.64.41-10.5 4.42-9.82 12.58C126.56 149 136.84 151.93 149 153h3.86c2.62-.11 5.23-.44 7.8-.97 2.57-.53 5.09-1.26 7.54-2.2 2.45-.93 4.82-2.06 7.1-3.37a49.24 49.24 0 0 0 6.47-4.46c2.02 1.66 4.16 3.16 6.42 4.48 2.26 1.32 4.62 2.45 7.06 3.38a48.37 48.37 0 0 0 15.28 3.14h3.93c12.07-1 22.25-4 24.17-15.13.86-7.48-4.18-12.42-9.81-12.82-.59-.08-1.2-.08-1.79.02a6.105 6.105 0 0 0-3.18 1.57c-.44.41-.81.89-1.1 1.41-.31.42-.91 1.15-.31 1.65.64.22.92-.38 1.17-.61.09-.08.17-.16.27-.24.09-.07.19-.15.29-.21.1-.07.2-.13.3-.19.1-.06.21-.11.32-.16 3.28-1.44 6.22 1.17 6.56 4.17.32 2.8-1.26 5.31-3.74 5.58-.41.01-.82-.01-1.23-.05-.41-.04-.82-.1-1.22-.18-.4-.08-.8-.19-1.19-.32-.39-.13-.77-.28-1.15-.45-9.67-3.69-15.19-12.37-27.3-13.19h-1.35c-5.46.26-9.72 1.72-12.46 4.72-2.7-2.99-6.96-4.44-12.39-4.72h-1.41z"/><path id="Layer" class="shp1" d="M363.72 84.99l5.71-5.72-2.09-2.08-5.71 5.71zm-351.97.05l5.71-5.71-2.09-2.09-5.71 5.71z"/><path id="Layer" class="shp0" d="M55.65 69a4.534 4.534 0 0 1-.43 1.93c-.14.3-.32.58-.52.84-.21.26-.44.5-.7.71.25.24.48.5.69.78.2.28.38.58.52.9.14.32.25.65.33.98.08.34.12.68.13 1.03v14.1c-.01.6-.13 1.19-.37 1.73-.23.55-.57 1.05-.99 1.47-.42.42-.92.76-1.47.99-.55.23-1.14.36-1.73.37H35.46V51.72H51.1c.6 0 1.19.12 1.74.36.55.23 1.05.57 1.48.99.42.42.76.92.99 1.48.23.55.35 1.14.36 1.74zm-7.45-9.89h-5.36v10.41h5.36zm0 17.8h-5.36v10.47h5.36zm35.9-25.19c.6 0 1.19.12 1.74.36.55.23 1.05.57 1.48.99.42.42.76.92.99 1.48.23.55.35 1.14.36 1.74v34c-.01.6-.13 1.19-.37 1.73-.23.55-.57 1.05-.99 1.47-.42.42-.92.76-1.47.99-.55.23-1.14.36-1.73.37h-11.1c-.6 0-1.19-.12-1.74-.36-.55-.23-1.05-.57-1.48-.99-.42-.42-.76-.92-.99-1.48-.23-.55-.35-1.14-.36-1.74v-34c0-.6.12-1.19.34-1.75.23-.55.56-1.06.99-1.48.42-.42.93-.76 1.48-.99.55-.23 1.15-.35 1.75-.34zm-2.9 7.39h-5.35v28.27h5.36zm33.51 35.72l-3-17.92h-2.83v17.92h-7.39V51.72h15.64c.59 0 1.18.12 1.73.36.55.23 1.05.57 1.46.99.42.42.75.93.97 1.48.22.55.34 1.14.33 1.74v16.14c0 .43-.06.85-.19 1.26-.12.41-.3.8-.53 1.16-.23.36-.51.68-.84.96-.32.28-.69.51-1.07.68l3.08 18.35zm-.49-35.72h-5.36v10.41h5.36zm34.92-7.39c.6 0 1.19.12 1.74.36.55.23 1.05.57 1.48.99.42.42.76.92.99 1.48.23.55.35 1.14.36 1.74v34c-.01.6-.13 1.19-.37 1.73-.23.55-.57 1.05-.99 1.47-.42.42-.92.76-1.47.99-.55.23-1.14.36-1.73.37h-11.08c-.6 0-1.19-.12-1.74-.36-.55-.23-1.05-.57-1.48-.99-.42-.42-.76-.92-.99-1.48-.23-.55-.35-1.14-.36-1.74v-34c0-.59.11-1.18.34-1.73a4.535 4.535 0 0 1 4.16-2.82zm-2.9 7.39h-5.36v28.27h5.36zm35.91-7.39c.6 0 1.19.12 1.74.36.55.23 1.05.57 1.48.99.42.42.76.92.99 1.48.23.55.35 1.14.36 1.74v34c-.01.6-.13 1.19-.37 1.73-.23.55-.57 1.05-.99 1.47-.42.42-.92.76-1.47.99-.55.23-1.14.36-1.73.37h-15.64V51.73zm-2.89 7.39h-5.36v28.27h5.36zm20.63-7.39h7.39v43.11h-7.39zm40.28 0v43.11h-7.39L227.36 76v18.83H220V51.72h7.33l5.42 17.67V51.72zm28.45 17.8c.6 0 1.19.12 1.74.36.55.23 1.05.57 1.48.99.42.42.76.92.99 1.48.23.55.35 1.14.36 1.74v16.2c-.01.6-.13 1.19-.37 1.73-.23.55-.57 1.05-.99 1.47-.42.42-.92.76-1.47.99-.55.23-1.14.36-1.73.37h-11.08a4.591 4.591 0 0 1-3.2-1.35 4.563 4.563 0 0 1-1.33-3.21v-8.87l7.39-1.72v7.7h5.36V76.92h-8.19c-.6 0-1.19-.12-1.74-.34-.55-.23-1.05-.56-1.48-.98-.42-.42-.76-.92-.99-1.47-.23-.55-.35-1.14-.35-1.74V56.3c0-.6.12-1.19.34-1.74.23-.55.56-1.05.98-1.48.42-.42.92-.76 1.47-.99.55-.23 1.14-.35 1.74-.35h11.1c.6 0 1.19.12 1.74.36.55.23 1.05.57 1.48.99.42.42.76.92.99 1.48.23.55.35 1.14.36 1.74v8.72l-7.45 1.73v-7.62h-5.36v10.41zm31.6 3.7l6.9 21.62h-7.45l-.06-.25-5.54-17.67h-.68v17.91H286V51.72h7.39v17.8h.61l5.67-17.8h7.51zm18.97-21.5h7.39v43.11h-7.39z"/></svg>