<svg xmlns="http://www.w3.org/2000/svg" width="16" height="16"><style>.shp0{fill:#fff}</style><path id="Layer" class="shp0" d="M7.31 9.06l-.08.07-1.43 1.46-.07.07c-.02.03-.04.05-.06.08-.02.03-.04.05-.05.08-.02.03-.03.06-.05.09-.05.11-.09.22-.11.34-.02.12-.02.24 0 .36s.05.23.1.34c.05.11.12.21.2.29.06.07.13.12.2.17.07.05.15.09.23.12.08.03.17.05.25.07.09.01.18.01.26.01.07 0 .15-.02.22-.03.07-.02.14-.04.21-.08.07-.03.13-.07.19-.11.06-.04.12-.09.17-.15l1.85-1.86 1.72-1.72c.02-.02.04-.04.05-.06.02-.02.03-.04.05-.07.02-.02.03-.05.05-.07.01-.02.03-.05.04-.07.02-.05.04-.09.06-.14.02-.05.03-.1.04-.15.01-.05.02-.1.02-.15V7.8c0-.05-.01-.1-.02-.16-.01-.05-.02-.1-.04-.15-.02-.05-.04-.1-.06-.14-.03-.05-.05-.09-.09-.13-.14-.17-.29-.32-.44-.48L7.33 3.35c-.07-.06-.14-.12-.22-.16-.08-.04-.16-.08-.25-.1-.09-.02-.18-.04-.27-.04-.09 0-.18.01-.27.03-.07.01-.14.03-.2.05-.07.02-.13.05-.19.09-.06.03-.12.08-.17.12-.05.05-.1.1-.14.15-.04.05-.08.1-.11.15-.03.05-.06.11-.08.16-.02.06-.04.12-.05.18l-.03.18c-.01.09-.01.19.01.28.01.09.04.18.07.27.03.09.08.17.13.25.05.08.11.15.18.21l1.5 1.5.08.08H2.08a.83.83 0 0 0-.21.06c-.07.02-.13.05-.19.09-.06.04-.12.08-.17.12l-.15.15a1.07 1.07 0 0 0-.27.73c0 .09.01.18.03.26.01.06.03.12.06.18a.7.7 0 0 0 .09.17c.03.05.07.1.11.15.04.05.09.09.14.13.05.05.11.09.17.13.06.04.12.07.19.09l.21.06c.07.01.14.02.21.02h5zM12.51 8v3.93c0 .05 0 .1-.02.15-.01.05-.03.09-.05.14-.02.04-.05.08-.08.12-.03.04-.07.07-.11.1-.03.02-.06.04-.09.05-.03.01-.07.03-.1.04a.36.36 0 0 1-.11.02H10.57c-.06.02-.13.04-.19.06l-.18.09c-.06.04-.11.08-.16.12-.05.04-.09.09-.14.15-.1.12-.17.26-.21.41-.04.15-.05.31-.04.47.02.16.07.31.15.44.08.14.18.25.31.35a1.303 1.303 0 0 0 .32.18c.06.02.12.04.18.05.06.01.12.02.19.02h1c.05 0 .11 0 .16.01h.32c.05 0 .11 0 .16-.01.06-.01.13-.02.19-.04.06-.01.12-.03.19-.05.06-.02.12-.04.18-.07.06-.03.12-.05.17-.08.06-.03.11-.06.16-.09s.11-.07.16-.1c.05-.04.1-.07.15-.11.05-.04.1-.08.14-.12.07-.06.14-.12.21-.19.07-.07.13-.14.19-.21.06-.07.12-.15.17-.22l.15-.24c.06-.11.11-.22.16-.34.04-.11.08-.23.11-.35.03-.12.05-.24.07-.36.01-.12.02-.25.02-.37v-8.2l-.03-.23c-.01-.08-.03-.15-.05-.23-.02-.08-.05-.15-.08-.22s-.06-.14-.1-.21c-.05-.1-.11-.21-.17-.3-.06-.1-.13-.19-.21-.28-.07-.09-.15-.18-.24-.26a2.848 2.848 0 0 0-.66-.49c-.14-.08-.29-.14-.44-.19-.15-.05-.31-.09-.46-.12-.16-.03-.32-.04-.48-.04h-1.32c-.06.01-.12.03-.18.05-.06.02-.12.05-.17.08-.06.03-.11.07-.16.11-.05.04-.1.08-.14.13-.05.05-.09.1-.13.16-.04.06-.07.12-.1.18s-.05.13-.06.19l-.03.2v.18c.01.06.02.12.03.17.02.06.04.11.06.17.02.05.05.11.08.15a1.077 1.077 0 0 0 .7.53c.1.02.2.04.3.03H12a.664.664 0 0 1 .37.18c.05.05.09.11.12.17.03.06.05.13.05.2V8z"/><path id="Layer" class="shp0" d="M7.32 9.08l-.08.07-1.43 1.44-.07.07c-.02.03-.04.05-.06.08-.02.03-.04.05-.05.08-.02.03-.03.06-.05.09-.05.11-.09.22-.11.34-.02.12-.02.24 0 .36s.05.23.1.34c.05.11.12.21.2.29.06.07.13.12.2.17.07.05.15.09.23.12.08.03.17.05.25.07.09.01.18.01.26.01.07 0 .15-.02.22-.03.07-.02.14-.04.21-.08.07-.03.13-.07.19-.11.06-.04.12-.09.17-.15l1.84-1.86 1.72-1.75c.02-.02.04-.04.05-.06.02-.02.03-.04.05-.07.02-.02.03-.05.05-.07.01-.02.03-.05.04-.07.02-.05.04-.09.06-.14.02-.05.03-.1.04-.15.01-.05.02-.1.02-.15v-.15c0-.05-.01-.1-.02-.16-.01-.05-.02-.1-.04-.15-.02-.05-.04-.1-.06-.14-.03-.05-.05-.09-.09-.13a6.77 6.77 0 0 0-.44-.48L7.33 3.33c-.07-.06-.14-.12-.22-.16-.08-.04-.16-.08-.25-.1-.09-.02-.18-.04-.27-.04-.09 0-.18.01-.27.03-.07.01-.14.03-.2.05-.07.02-.13.05-.19.09-.06.03-.12.08-.17.12-.05.05-.1.1-.14.15-.04.05-.08.1-.11.15-.03.05-.06.11-.08.16-.02.06-.04.12-.05.18l-.03.18c-.01.09-.01.19.01.28.01.09.04.18.07.27.03.09.08.17.13.25.05.08.11.15.18.21l1.5 1.5.08.08H2.08c-.07.01-.14.04-.21.06-.07.03-.13.06-.19.1-.06.04-.12.08-.17.13-.05.05-.1.1-.15.16a1.07 1.07 0 0 0-.27.73c0 .09.01.18.03.26.01.06.03.12.06.18a.7.7 0 0 0 .09.17c.03.05.07.1.11.15.04.05.09.09.14.13.05.05.11.09.17.13.06.04.12.07.19.09l.21.06c.07.01.14.02.21.02h5z"/><path id="Layer" class="shp0" d="M12.51 8.04v3.93c0 .05 0 .1-.02.15-.01.05-.03.09-.05.14-.02.04-.05.08-.08.12-.03.04-.07.07-.11.1-.03.02-.06.04-.09.05-.03.01-.07.03-.1.04a.36.36 0 0 1-.11.02H10.57c-.06.02-.13.04-.19.06l-.18.09c-.06.04-.11.08-.16.12-.05.04-.09.09-.14.15-.09.12-.15.26-.19.4-.04.14-.05.29-.03.44a1.168 1.168 0 0 0 .93.99c.06.01.12.02.19.02h1c.05 0 .11.01.16.01h.32c.05 0 .11 0 .16-.01.06-.01.13-.02.19-.04.06-.01.12-.03.19-.05.06-.02.12-.04.18-.07.06-.03.12-.05.17-.08.06-.03.11-.06.16-.09s.11-.07.16-.1c.05-.04.1-.07.15-.11.05-.04.1-.08.14-.12.07-.06.14-.12.21-.19.07-.07.13-.14.19-.21.06-.07.12-.15.17-.22l.15-.24c.06-.11.11-.22.16-.34.04-.11.08-.23.11-.35.03-.12.05-.24.07-.36.01-.12.02-.25.02-.37v-8.2l-.03-.23c-.01-.08-.03-.15-.05-.23-.02-.08-.05-.15-.08-.22s-.06-.14-.1-.21c-.05-.1-.11-.2-.17-.29-.06-.09-.13-.19-.2-.27-.07-.09-.15-.17-.23-.25-.08-.08-.17-.15-.25-.22-.13-.1-.26-.19-.4-.26-.14-.08-.29-.14-.44-.19-.15-.05-.31-.09-.46-.12-.16-.03-.32-.04-.48-.04h-1.32c-.06.01-.12.03-.18.05-.06.02-.12.05-.17.08-.06.03-.11.07-.16.11-.05.04-.1.08-.14.13-.05.05-.1.1-.14.16-.04.06-.08.12-.11.18s-.06.13-.07.2c-.02.07-.03.14-.03.21v.18c.01.06.02.12.03.17.02.06.04.11.06.17.02.05.05.11.08.15a1.077 1.077 0 0 0 .7.53c.1.02.2.04.3.03H12a.62.62 0 0 1 .35.2.62.62 0 0 1 .16.37v3.94z"/></svg>